<mxfile host="app.diagrams.net" modified="2024-06-24T20:45:29.755Z" agent="Mozilla/5.0 (Windows NT 10.0; Win64; x64) AppleWebKit/537.36 (KHTML, like Gecko) Chrome/120.0.0.0 Safari/537.36" version="24.6.2" etag="ayy43CrsxAUHmapajZJr" type="github">
  <diagram name="PÃ¡gina-1" id="4-nQUIbBwqcjQ65p0GBN">
    <mxGraphModel>
      <root>
        <mxCell id="0" />
        <mxCell id="1" parent="0" />
      </root>
    </mxGraphModel>
  </diagram>
</mxfile>
